<?xml version="1.0" standalone="no"?>
<!DOCTYPE svg PUBLIC "-//W3C//DTD SVG 20010904//EN"
 "http://www.w3.org/TR/2001/REC-SVG-20010904/DTD/svg10.dtd">
<svg version="1.0" xmlns="http://www.w3.org/2000/svg"
 width="320.000000pt" height="47.000000pt" viewBox="0 0 320.000000 47.000000"
 preserveAspectRatio="xMidYMid meet">

<g transform="translate(0.000000,47.000000) scale(0.100000,-0.100000)"
fill="white" stroke="none">
<path d="M170 235 c0 -37 4 -65 10 -65 6 0 10 10 10 22 l0 21 25 -23 c14 -13
27 -21 30 -18 3 2 -4 13 -15 23 l-20 18 22 24 c25 27 5 33 -24 6 -17 -15 -18
-14 -18 20 0 21 -4 37 -10 37 -6 0 -10 -28 -10 -65z"/>
<path d="M490 290 c0 -5 7 -10 15 -10 8 0 15 5 15 10 0 6 -7 10 -15 10 -8 0
-15 -4 -15 -10z"/>
<path d="M1120 281 c0 -12 -8 -21 -21 -23 -29 -4 -43 -29 -35 -61 5 -23 11
-26 41 -25 l35 1 0 64 c0 35 -4 63 -10 63 -5 0 -10 -9 -10 -19z m-2 -63 c-3
-36 -30 -46 -36 -15 -5 26 5 47 23 47 12 0 15 -8 13 -32z"/>
<path d="M1190 290 c0 -5 7 -10 15 -10 8 0 15 5 15 10 0 6 -7 10 -15 10 -8 0
-15 -4 -15 -10z"/>
<path d="M2084 292 c-6 -4 -17 -18 -23 -31 -10 -17 -16 -20 -24 -12 -27 27
-77 5 -77 -34 0 -12 5 -26 12 -33 15 -15 55 -16 64 -1 4 7 12 -1 20 -20 10
-23 19 -31 39 -31 14 0 25 4 25 10 0 5 -7 7 -15 4 -8 -4 -22 -1 -30 6 -28 24
-13 124 21 137 23 8 34 -15 32 -67 -1 -43 -2 -44 -5 -7 -3 22 -10 37 -17 37
-21 0 -38 -26 -34 -52 2 -18 9 -23 33 -23 28 0 30 3 33 42 5 64 -20 98 -54 75z
m-59 -77 c0 -23 -4 -30 -20 -30 -21 0 -31 25 -21 51 11 28 41 12 41 -21z m76
-28 c-8 -8 -11 -3 -11 19 1 25 2 27 11 11 8 -14 8 -22 0 -30z"/>
<path d="M2490 290 c0 -5 7 -10 15 -10 8 0 15 5 15 10 0 6 -7 10 -15 10 -8 0
-15 -4 -15 -10z"/>
<path d="M2583 293 c13 -4 17 -15 17 -58 0 -43 -4 -54 -17 -58 -10 -3 0 -5 22
-5 22 0 34 2 28 5 -9 3 -13 26 -13 64 0 58 0 59 -27 58 -17 -1 -21 -3 -10 -6z"/>
<path d="M1380 276 c0 -8 -6 -17 -12 -19 -10 -4 -10 -6 0 -6 6 -1 12 -10 12
-22 0 -33 19 -59 43 -58 15 0 17 2 7 6 -37 14 -42 69 -7 76 l22 4 -22 2 c-13
0 -23 8 -23 16 0 8 -4 15 -10 15 -5 0 -10 -6 -10 -14z"/>
<path d="M1480 276 c0 -8 -6 -17 -12 -19 -10 -4 -10 -6 0 -6 6 -1 12 -10 12
-22 0 -33 19 -59 43 -58 15 0 17 2 7 6 -37 14 -42 69 -7 76 l22 4 -22 2 c-13
0 -23 8 -23 16 0 8 -4 15 -10 15 -5 0 -10 -6 -10 -14z"/>
<path d="M1880 276 c0 -8 -6 -17 -12 -19 -10 -4 -10 -6 0 -6 6 -1 12 -10 12
-22 0 -33 19 -59 43 -58 15 0 17 2 7 6 -37 14 -42 69 -7 76 l22 4 -22 2 c-13
0 -23 8 -23 16 0 8 -4 15 -10 15 -5 0 -10 -6 -10 -14z"/>
<path d="M276 252 c-3 -5 4 -8 16 -8 32 1 33 -22 1 -26 -20 -2 -28 -9 -28 -23
0 -16 7 -20 38 -22 l38 -1 -3 41 c-3 37 -6 42 -30 45 -14 2 -29 -1 -32 -6z
m42 -54 c-7 -19 -38 -22 -38 -4 0 10 9 16 21 16 12 0 19 -5 17 -12z"/>
<path d="M370 213 c0 -23 5 -43 10 -43 6 0 10 16 10 35 0 38 25 59 40 34 5 -7
12 -10 15 -7 14 14 -7 27 -40 26 -34 -1 -35 -2 -35 -45z"/>
<path d="M483 253 c12 -3 17 -14 17 -38 0 -24 -5 -35 -17 -38 -10 -3 0 -5 22
-5 22 0 34 2 28 5 -8 2 -13 22 -13 44 0 36 -2 39 -27 38 -17 -1 -21 -3 -10 -6z"/>
<path d="M560 214 c0 -54 18 -59 22 -7 2 27 8 39 21 41 14 3 17 -4 17 -37 0
-23 5 -41 11 -41 6 0 9 17 7 43 -3 41 -4 42 -40 44 l-38 1 0 -44z"/>
<path d="M676 252 c-3 -5 4 -8 16 -8 32 1 33 -22 1 -26 -20 -2 -28 -9 -28 -23
0 -16 7 -20 38 -22 l38 -1 -3 41 c-3 37 -6 42 -30 45 -14 2 -29 -1 -32 -6z
m42 -54 c-7 -19 -38 -22 -38 -4 0 10 9 16 21 16 12 0 19 -5 17 -12z"/>
<path d="M760 216 c0 -58 18 -60 23 -3 l4 42 1 -42 c1 -24 7 -43 13 -43 6 0 9
17 7 43 -2 35 -7 43 -25 45 -21 3 -23 -1 -23 -42z"/>
<path d="M818 215 c2 -25 8 -45 13 -45 5 0 9 20 9 45 0 29 -4 45 -13 45 -8 0
-11 -14 -9 -45z"/>
<path d="M872 248 c-15 -15 -15 -51 0 -66 7 -7 26 -11 42 -11 l31 1 -29 7
c-41 9 -46 31 -7 31 19 0 31 5 31 13 0 18 -21 37 -40 37 -9 0 -21 -5 -28 -12z
m46 -16 c2 -7 -6 -12 -17 -12 -21 0 -27 11 -14 24 9 9 26 2 31 -12z"/>
<path d="M960 214 c0 -54 18 -59 22 -7 2 27 8 39 21 41 14 3 17 -4 17 -37 0
-23 5 -41 11 -41 6 0 9 17 7 43 -3 41 -4 42 -40 44 l-38 1 0 -44z"/>
<path d="M1183 253 c12 -3 17 -14 17 -38 0 -24 -5 -35 -17 -38 -10 -3 0 -5 22
-5 22 0 34 2 28 5 -8 2 -13 22 -13 44 0 36 -2 39 -27 38 -17 -1 -21 -3 -10 -6z"/>
<path d="M1272 248 c-7 -7 -12 -21 -12 -33 0 -30 19 -45 55 -44 l30 1 -29 7
c-41 9 -46 31 -7 31 19 0 31 5 31 13 0 18 -21 37 -40 37 -9 0 -21 -5 -28 -12z
m46 -16 c2 -7 -6 -12 -17 -12 -21 0 -27 11 -14 24 9 9 26 2 31 -12z"/>
<path d="M1576 252 c-3 -5 4 -8 16 -8 32 1 33 -22 1 -26 -20 -2 -28 -9 -28
-23 0 -16 7 -20 38 -22 l38 -1 -3 41 c-3 37 -6 42 -30 45 -14 2 -29 -1 -32 -6z
m42 -54 c-7 -19 -38 -22 -38 -4 0 10 9 16 21 16 12 0 19 -5 17 -12z"/>
<path d="M1677 253 c-14 -14 -6 -34 18 -43 33 -13 33 -34 -1 -27 -16 3 -22 1
-16 -5 15 -15 56 -5 60 14 2 12 -6 21 -22 28 -31 11 -35 35 -6 27 11 -3 18 -1
14 4 -6 10 -38 12 -47 2z"/>
<path d="M1772 248 c-28 -28 -7 -78 33 -78 27 0 45 18 45 45 0 27 -18 45 -45
45 -12 0 -26 -5 -33 -12z m53 -33 c0 -23 -4 -30 -20 -30 -21 0 -31 25 -21 51
11 28 41 12 41 -21z"/>
<path d="M2174 247 c-3 -8 -6 -36 -7 -63 -2 -48 -1 -49 28 -52 37 -3 60 11 52
32 -4 10 -18 16 -37 16 -37 0 -40 17 -3 22 19 2 29 10 34 31 7 26 6 27 -27 27
-20 0 -37 -6 -40 -13z m46 -17 c0 -11 -7 -20 -15 -20 -8 0 -15 9 -15 20 0 11
7 20 15 20 8 0 15 -9 15 -20z m8 -72 c-7 -20 -48 -23 -48 -4 0 11 9 16 26 16
16 0 24 -5 22 -12z"/>
<path d="M2260 216 c0 -58 18 -60 23 -3 l4 42 1 -42 c1 -24 7 -43 13 -43 6 0
9 17 7 43 -2 35 -7 43 -25 45 -21 3 -23 -1 -23 -42z"/>
<path d="M2318 215 c2 -25 8 -45 13 -45 5 0 9 20 9 45 0 29 -4 45 -13 45 -8 0
-11 -14 -9 -45z"/>
<path d="M2376 252 c-3 -5 4 -8 16 -8 32 1 33 -22 1 -26 -20 -2 -28 -9 -28
-23 0 -16 7 -20 38 -22 l38 -1 -3 41 c-3 37 -6 42 -30 45 -14 2 -29 -1 -32 -6z
m42 -54 c-7 -19 -38 -22 -38 -4 0 10 9 16 21 16 12 0 19 -5 17 -12z"/>
<path d="M2483 253 c12 -3 17 -14 17 -38 0 -24 -5 -35 -17 -38 -10 -3 0 -5 22
-5 22 0 34 2 28 5 -8 2 -13 22 -13 44 0 36 -2 39 -27 38 -17 -1 -21 -3 -10 -6z"/>
<path d="M2772 248 c-27 -27 -7 -78 29 -78 10 0 20 4 23 8 3 5 -5 8 -17 8 -18
-1 -22 5 -22 29 0 24 4 30 22 29 12 0 20 3 17 8 -8 12 -38 10 -52 -4z"/>
<path d="M2872 248 c-28 -28 -7 -78 33 -78 27 0 45 18 45 45 0 27 -18 45 -45
45 -12 0 -26 -5 -33 -12z m53 -33 c0 -23 -4 -30 -20 -30 -21 0 -31 25 -21 51
11 28 41 12 41 -21z"/>
<path d="M2960 216 c0 -58 18 -60 23 -3 l4 42 1 -42 c1 -24 7 -43 13 -43 6 0
9 17 7 43 -2 35 -7 43 -25 45 -21 3 -23 -1 -23 -42z"/>
<path d="M3018 215 c2 -25 8 -45 13 -45 5 0 9 20 9 45 0 29 -4 45 -13 45 -8 0
-11 -14 -9 -45z"/>
<path d="M2680 185 c0 -8 7 -15 15 -15 8 0 15 7 15 15 0 8 -7 15 -15 15 -8 0
-15 -7 -15 -15z"/>
</g>
</svg>
